<svg width="1314" height="1320" viewBox="0 0 1314 1320" fill="none" xmlns="http://www.w3.org/2000/svg">
<path d="M0 1319.65L92.8488 980.872C35.7593 881.75 5.33253 769.14 5.64621 654.02C5.64621 293.289 299.249 0 659.979 0C835.012 0 999.379 68.0682 1122.66 191.658C1246.24 315.247 1314.31 479.614 1314 654.333C1314 1015.06 1020.4 1308.35 659.666 1308.35H659.352C549.878 1308.35 442.287 1280.75 346.615 1228.68L0 1319.65ZM362.926 1110.11L382.688 1122.03C466.126 1171.59 561.798 1197.62 659.352 1197.94H659.666C959.229 1197.94 1203.27 954.21 1203.27 654.333C1203.27 509.1 1146.81 372.65 1044.24 269.763C941.663 166.877 804.899 110.415 659.666 110.415C359.789 110.415 115.747 354.143 115.747 654.02C115.747 756.592 144.292 856.656 198.872 943.231L211.733 963.934L156.839 1164.37L362.926 1110.11Z" fill="black" fill-opacity="0.24"/>
<path d="M29.6836 1284.68L118.282 961.571C63.7599 867.087 34.9499 759.592 34.9499 649.928C34.9499 306.067 314.995 26.3315 658.546 26.3315C825.52 26.3315 981.961 91.3863 1099.68 209.104C1217.4 326.823 1282.14 483.574 1282.14 650.238C1282.14 994.099 1002.1 1273.83 658.546 1273.83H658.237C553.839 1273.83 451.3 1247.5 360.224 1197.94L29.6836 1284.68Z" fill="url(#paint0_linear_156_172)"/>
<path d="M7.0625 1307.29L98.7587 972.724C42.3779 874.832 12.3288 763.619 12.6386 649.928C12.6386 293.676 302.597 4.02734 658.849 4.02734C831.709 4.02734 994.036 71.2506 1115.78 193.306C1237.84 315.361 1305.06 477.688 1304.75 650.238C1304.75 1006.49 1014.79 1296.14 658.54 1296.14H658.23C550.115 1296.14 443.859 1268.88 349.374 1217.45L7.0625 1307.29ZM365.483 1100.35L385 1112.13C467.402 1161.07 561.887 1186.78 658.23 1187.09H658.54C954.384 1187.09 1195.4 946.392 1195.4 650.238C1195.4 506.808 1139.63 372.051 1038.34 270.442C937.036 168.833 801.97 113.072 658.54 113.072C362.385 113.072 121.373 353.774 121.373 649.928C121.373 751.228 149.563 850.049 203.466 935.55L216.167 955.995L161.955 1153.95L365.483 1100.35Z" fill="white"/>
<path d="M497.148 379.486C485.067 352.535 472.366 351.915 460.904 351.605C451.61 351.295 440.768 351.295 429.925 351.295C419.083 351.295 401.735 355.323 386.865 371.431C371.996 387.54 330.484 426.573 330.484 506.188C330.484 585.493 388.414 662.319 396.469 673.162C404.523 684.004 508.301 852.217 672.177 916.962C808.482 970.865 836.363 960.022 865.792 957.234C895.531 954.446 961.206 918.201 974.836 880.407C988.157 842.614 988.157 810.396 984.13 803.581C980.103 796.766 969.26 792.738 953.151 784.684C937.043 776.63 857.738 737.597 842.868 732.021C827.998 726.444 817.156 723.966 806.623 740.075C795.781 756.184 764.802 792.429 755.509 803.271C746.215 814.114 736.612 815.353 720.503 807.298C704.394 799.244 652.351 782.206 590.703 727.064C542.687 684.314 510.159 631.341 500.866 615.232C491.572 599.123 499.937 590.449 507.991 582.395C515.116 575.27 524.1 563.498 532.154 554.204C540.209 544.911 542.997 538.096 548.263 527.253C553.529 516.411 551.051 507.117 547.024 499.063C542.997 491.008 511.399 411.394 497.148 379.486V379.486Z" fill="white"/>
<defs>
<linearGradient id="paint0_linear_156_172" x1="655.894" y1="1284.59" x2="655.894" y2="26.2612" gradientUnits="userSpaceOnUse">
<stop stop-color="#20B038"/>
<stop offset="1" stop-color="#60D66A"/>
</linearGradient>
</defs>
</svg>
